<svg xmlns="http://www.w3.org/2000/svg" width="864" height="304" viewBox="0 0 864 304" role="img" aria-labelledby="t d" font-family="system-ui, -apple-system, 'Segoe UI', Roboto, Helvetica, Arial, sans-serif">
<title id="t">v0.1 trial outcomes</title><desc id="d">Stacked outcome of every trial by partition and configuration: strict pass, failed, not fully graded, candidate failure.</desc>
<rect width="864" height="304" rx="12" fill="#fcfcfb"/>
<text x="24" y="34" font-size="18" fill="#0b0b0b" font-weight="600">v0.1 baseline: how every trial ended</text><text x="24" y="56" font-size="13" fill="#52514e">3 repeats of every core case per configuration; no trial is dropped</text><rect x="24" y="68" width="12" height="12" rx="3" fill="#2a78d6"/><text x="42" y="78" font-size="12" fill="#52514e">Strict pass</text><rect x="194" y="68" width="12" height="12" rx="3" fill="#eb6834"/><text x="212" y="78" font-size="12" fill="#52514e">Failed</text><rect x="364" y="68" width="12" height="12" rx="3" fill="#1baf7a"/><text x="382" y="78" font-size="12" fill="#52514e">Not fully graded</text><rect x="534" y="68" width="12" height="12" rx="3" fill="#eda100"/><text x="552" y="78" font-size="12" fill="#52514e">Candidate failure</text><text x="24" y="122" font-size="13" fill="#0b0b0b" font-weight="600">Documents · development</text><text x="40" y="150" font-size="13" fill="#52514e">gpt-6-luna</text><rect x="274" y="134" width="63" height="24" rx="3" fill="#2a78d6"><title>gpt-6-luna: 3 of 24 strict pass</title></rect><text x="305.5" y="150" font-size="12" fill="#ffffff" text-anchor="middle" font-weight="600">3</text><rect x="339" y="134" width="106.33333333333334" height="24" rx="3" fill="#eb6834"><title>gpt-6-luna: 5 of 24 failed</title></rect><text x="392.1666666666667" y="150" font-size="12" fill="#ffffff" text-anchor="middle" font-weight="600">5</text><rect x="447.33333333333337" y="134" width="323" height="24" rx="3" fill="#1baf7a"><title>gpt-6-luna: 15 of 24 not fully graded</title></rect><text x="608.8333333333334" y="150" font-size="12" fill="#0b0b0b" text-anchor="middle" font-weight="600">15</text><rect x="772.3333333333334" y="134" width="19.666666666666664" height="24" rx="3" fill="#eda100"><title>gpt-6-luna: 1 of 24 candidate failure</title></rect><text x="782.1666666666667" y="150" font-size="12" fill="#0b0b0b" text-anchor="middle" font-weight="600">1</text><text x="802" y="150" font-size="12" fill="#8a8984">24 trials</text><text x="40" y="180" font-size="13" fill="#52514e">gpt-5.6-luna</text><rect x="274" y="164" width="19.666666666666664" height="24" rx="3" fill="#2a78d6"><title>gpt-5.6-luna: 1 of 24 strict pass</title></rect><text x="283.8333333333333" y="180" font-size="12" fill="#ffffff" text-anchor="middle" font-weight="600">1</text><rect x="295.6666666666667" y="164" width="149.66666666666669" height="24" rx="3" fill="#1baf7a"><title>gpt-5.6-luna: 7 of 24 not fully graded</title></rect><text x="370.5" y="180" font-size="12" fill="#0b0b0b" text-anchor="middle" font-weight="600">7</text><rect x="447.33333333333337" y="164" width="344.66666666666663" height="24" rx="3" fill="#eda100"><title>gpt-5.6-luna: 16 of 24 candidate failure</title></rect><text x="619.6666666666667" y="180" font-size="12" fill="#0b0b0b" text-anchor="middle" font-weight="600">16</text><text x="802" y="180" font-size="12" fill="#8a8984">24 trials</text><text x="24" y="212" font-size="13" fill="#0b0b0b" font-weight="600">Documents · held-out</text><text x="40" y="240" font-size="13" fill="#52514e">gpt-6-luna</text><rect x="274" y="224" width="63" height="24" rx="3" fill="#2a78d6"><title>gpt-6-luna: 3 of 24 strict pass</title></rect><text x="305.5" y="240" font-size="12" fill="#ffffff" text-anchor="middle" font-weight="600">3</text><rect x="339" y="224" width="19.666666666666664" height="24" rx="3" fill="#eb6834"><title>gpt-6-luna: 1 of 24 failed</title></rect><text x="348.8333333333333" y="240" font-size="12" fill="#ffffff" text-anchor="middle" font-weight="600">1</text><rect x="360.6666666666667" y="224" width="366.33333333333337" height="24" rx="3" fill="#1baf7a"><title>gpt-6-luna: 17 of 24 not fully graded</title></rect><text x="543.8333333333334" y="240" font-size="12" fill="#0b0b0b" text-anchor="middle" font-weight="600">17</text><rect x="729" y="224" width="63" height="24" rx="3" fill="#eda100"><title>gpt-6-luna: 3 of 24 candidate failure</title></rect><text x="760.5" y="240" font-size="12" fill="#0b0b0b" text-anchor="middle" font-weight="600">3</text><text x="802" y="240" font-size="12" fill="#8a8984">24 trials</text><text x="40" y="270" font-size="13" fill="#52514e">gpt-5.6-luna</text><rect x="274" y="254" width="19.666666666666664" height="24" rx="3" fill="#2a78d6"><title>gpt-5.6-luna: 1 of 24 strict pass</title></rect><text x="283.8333333333333" y="270" font-size="12" fill="#ffffff" text-anchor="middle" font-weight="600">1</text><rect x="295.6666666666667" y="254" width="171.33333333333331" height="24" rx="3" fill="#1baf7a"><title>gpt-5.6-luna: 8 of 24 not fully graded</title></rect><text x="381.33333333333337" y="270" font-size="12" fill="#0b0b0b" text-anchor="middle" font-weight="600">8</text><rect x="469" y="254" width="323" height="24" rx="3" fill="#eda100"><title>gpt-5.6-luna: 15 of 24 candidate failure</title></rect><text x="630.5" y="270" font-size="12" fill="#0b0b0b" text-anchor="middle" font-weight="600">15</text><text x="802" y="270" font-size="12" fill="#8a8984">24 trials</text>
</svg>
